<svg width="110" height="44" viewBox="0 0 110 44" fill="none" xmlns="http://www.w3.org/2000/svg">
<path d="M65.3972 11.9774C62.654 9.23424 59.3973 7.05814 55.8132 5.57354C52.229 4.08894 48.3876 3.32484 44.5081 3.32484C40.6286 3.32484 36.7872 4.08894 33.203 5.57354C29.6189 7.05814 26.3622 9.23424 23.619 11.9774L44.5081 32.8664L65.3972 11.9774Z" fill="#FFD200"/>
<path d="M44.5343 32.8965C47.2775 35.6397 50.5341 37.8157 54.1183 39.3003C57.7024 40.7849 61.5439 41.549 65.4234 41.549C69.3027 41.549 73.1447 40.7849 76.7287 39.3003C80.3127 37.8157 83.5697 35.6397 86.3127 32.8965L65.4234 12.0074L44.5343 32.8965Z" fill="#06E07F"/>
<path d="M44.4827 32.8919C41.7395 35.6351 38.4828 37.8111 34.8987 39.2957C31.3145 40.7803 27.4731 41.5444 23.5936 41.5444C19.7141 41.5444 15.8727 40.7803 12.2885 39.2957C8.70443 37.8111 5.44773 35.6351 2.70453 32.8919L23.5936 12.0028L44.4827 32.8919Z" fill="#E3073C"/>
<path d="M65.4488 11.982C68.1917 9.23884 71.4487 7.06284 75.0327 5.57824C78.6167 4.09364 82.4587 3.32954 86.3377 3.32954C90.2177 3.32954 94.0587 4.09364 97.6427 5.57824C101.227 7.06284 104.484 9.23884 107.227 11.982L86.3377 32.8711L65.4488 11.982Z" fill="#1F84EF"/>
</svg>
